HIERARCHY
ROOT joint_0
{
	OFFSET 0.000000 0.000000 0.000000
	CHANNELS 6 Xposition Yposition Zposition Zrotation Yrotation Xrotation 
	JOINT joint_1
	{
		OFFSET 10.084412 4.114712 95.061035
		CHANNELS 3 Zrotation Yrotation Xrotation
		JOINT joint_2
		{
			OFFSET -1.615463 4.243484 87.329956
			CHANNELS 3 Zrotation Yrotation Xrotation
			JOINT joint_3
			{
				OFFSET -3.579636 4.638191 87.154053
				CHANNELS 3 Zrotation Yrotation Xrotation
				JOINT joint_4
				{
					OFFSET 5.443451 7.217075 123.562988
					CHANNELS 3 Zrotation Yrotation Xrotation
					JOINT joint_5
					{
						OFFSET 21.688065 15.141808 90.458008
						CHANNELS 3 Zrotation Yrotation Xrotation
						End Site
						{
							OFFSET 0.000000 0.000000 0.000000
						}
					}
				}
				JOINT joint_6
				{
					OFFSET 3.611374 -22.863556 70.791992
					CHANNELS 3 Zrotation Yrotation Xrotation
					JOINT joint_7
					{
						OFFSET 3.493607 -153.029137 -12.665039
						CHANNELS 3 Zrotation Yrotation Xrotation
						JOINT joint_8
						{
							OFFSET -14.929443 -32.628616 -254.032959
							CHANNELS 3 Zrotation Yrotation Xrotation
							JOINT joint_9
							{
								OFFSET 11.589401 -3.548126 -242.255005
								CHANNELS 3 Zrotation Yrotation Xrotation
								End Site
								{
									OFFSET 0.000000 0.000000 0.000000
								}
							}
						}
					}
				}
				JOINT joint_10
				{
					OFFSET 2.651962 30.943008 67.690918
					CHANNELS 3 Zrotation Yrotation Xrotation
					JOINT joint_11
					{
						OFFSET -6.172562 150.392159 -30.576904
						CHANNELS 3 Zrotation Yrotation Xrotation
						JOINT joint_12
						{
							OFFSET 15.363358 20.741959 -255.254028
							CHANNELS 3 Zrotation Yrotation Xrotation
							JOINT joint_13
							{
								OFFSET 23.282578 -11.086121 -241.182983
								CHANNELS 3 Zrotation Yrotation Xrotation
								End Site
								{
									OFFSET 0.000000 0.000000 0.000000
								}
							}
						}
					}
				}
			}
		}
	}
	JOINT joint_14
	{
		OFFSET -7.080551 -92.910816 -106.291992
		CHANNELS 3 Zrotation Yrotation Xrotation
		JOINT joint_15
		{
			OFFSET -38.248322 -6.001282 -411.906006
			CHANNELS 3 Zrotation Yrotation Xrotation
			JOINT joint_16
			{
				OFFSET -11.189407 -11.244659 -448.150986
				CHANNELS 3 Zrotation Yrotation Xrotation
				JOINT joint_17
				{
					OFFSET 169.870491 -24.631378 -80.352999
					CHANNELS 3 Zrotation Yrotation Xrotation
					End Site
					{
						OFFSET 0.000000 0.000000 0.000000
					}
				}
			}
		}
	}
	JOINT joint_18
	{
		OFFSET -2.796600 85.817772 -112.273987
		CHANNELS 3 Zrotation Yrotation Xrotation
		JOINT joint_19
		{
			OFFSET -44.395859 -8.174402 -411.255005
			CHANNELS 3 Zrotation Yrotation Xrotation
			JOINT joint_20
			{
				OFFSET -25.617508 -5.555587 -447.666992
				CHANNELS 3 Zrotation Yrotation Xrotation
				JOINT joint_21
				{
					OFFSET 163.870811 53.215703 -78.867000
					CHANNELS 3 Zrotation Yrotation Xrotation
					End Site
					{
						OFFSET 0.000000 0.000000 0.000000
					}
				}
			}
		}
	}
}
MOTION
Frames: 18
Frame Time: 0.016667
-180.475906 -80.367455 1063.449951 -3.438588 1.967096 2.764947 -0.836871 -8.364945 0.327893 -1.402904 1.344353 -0.199029 -1.221606 -1.797792 0.144442 -2.585210 7.830896 5.823310 0.000000 0.000000 0.000000 1.465776 2.305274 4.415953 0.311428 2.102021 -5.805499 0.133187 -0.324665 2.371913 0.000000 0.000000 0.000000 -3.191403 2.304382 -3.443926 0.451744 3.250785 1.687767 0.008544 -1.062377 -0.331308 0.000000 0.000000 0.000000 0.552143 -2.974908 -1.269269 0.367908 0.553957 0.190581 0.438104 -1.956718 -0.077112 0.000000 0.000000 0.000000 0.007532 -4.118979 -1.272230 -0.152434 0.125789 -0.673913 -0.178673 1.257243 -0.493964 0.000000 0.000000 0.000000 
-180.366394 -80.285980 1063.449951 -3.434826 1.971724 2.763521 -0.831055 -8.366928 0.317248 -1.396794 1.346487 -0.194089 -1.215717 -1.798044 0.141348 -2.583117 7.826133 5.815607 0.000000 0.000000 0.000000 1.459294 2.292940 4.428570 0.311718 2.088578 -5.808467 0.132929 -0.332013 2.364369 0.000000 0.000000 0.000000 -3.203923 2.289487 -3.459174 0.449252 3.239601 1.715426 0.011530 -1.024222 -0.282954 0.000000 0.000000 0.000000 0.552618 -2.981957 -1.278656 0.366458 0.572254 0.197995 0.437556 -1.965239 -0.078606 0.000000 0.000000 0.000000 0.011058 -4.124032 -1.271540 -0.148727 0.137115 -0.678155 -0.175219 1.250373 -0.490075 0.000000 0.000000 0.000000 
-180.266693 -80.200089 1063.463013 -3.425650 1.973149 2.761504 -0.825384 -8.363758 0.304683 -1.390349 1.348059 -0.187767 -1.209665 -1.798357 0.136521 -2.581463 7.823158 5.807896 0.000000 0.000000 0.000000 1.445886 2.280126 4.439582 0.311072 2.074257 -5.808213 0.133135 -0.351307 2.359830 0.000000 0.000000 0.000000 -3.226405 2.269940 -3.476083 0.447207 3.226127 1.746559 0.016101 -0.985606 -0.217732 0.000000 0.000000 0.000000 0.552071 -2.993654 -1.289582 0.363214 0.604928 0.208913 0.435699 -1.974568 -0.080835 0.000000 0.000000 0.000000 0.013109 -4.131020 -1.268909 -0.146284 0.156447 -0.684518 -0.173044 1.240905 -0.485957 0.000000 0.000000 0.000000 
-180.174835 -80.109863 1063.474976 -3.412691 1.974477 2.758339 -0.821067 -8.362335 0.292942 -1.385433 1.350827 -0.181293 -1.204951 -1.800392 0.132615 -2.580503 7.822399 5.801904 0.000000 0.000000 0.000000 1.434087 2.266671 4.443945 0.310656 2.059759 -5.806957 0.133596 -0.372106 2.359268 0.000000 0.000000 0.000000 -3.238547 2.248480 -3.479159 0.446012 3.208069 1.774601 0.020506 -0.960491 -0.160532 0.000000 0.000000 0.000000 0.549400 -3.005227 -1.297210 0.358435 0.637391 0.216701 0.432279 -1.985367 -0.084016 0.000000 0.000000 0.000000 0.014646 -4.138523 -1.265359 -0.144319 0.175251 -0.690181 -0.171293 1.232111 -0.482262 0.000000 0.000000 0.000000 
-180.090668 -80.012299 1063.475952 -3.396057 1.975929 2.752335 -0.818736 -8.365446 0.288617 -1.383054 1.353942 -0.180327 -1.202371 -1.802865 0.131522 -2.581215 7.821980 5.803675 0.000000 0.000000 0.000000 1.430735 2.252131 4.438694 0.311345 2.045183 -5.806313 0.134274 -0.388557 2.364740 0.000000 0.000000 0.000000 -3.227062 2.223860 -3.453887 0.445317 3.180537 1.792930 0.023841 -0.955654 -0.123817 0.000000 0.000000 0.000000 0.543455 -3.011124 -1.296700 0.352135 0.659442 0.216301 0.426919 -1.997374 -0.088287 0.000000 0.000000 0.000000 0.015792 -4.143327 -1.259921 -0.142526 0.187308 -0.693693 -0.169654 1.224787 -0.479097 0.000000 0.000000 0.000000 
-180.017288 -79.909294 1063.473022 -3.375164 1.976680 2.744207 -0.817880 -8.371220 0.287142 -1.382426 1.357433 -0.181036 -1.201377 -1.805009 0.132517 -2.583187 7.821355 5.811311 0.000000 0.000000 0.000000 1.432976 2.236301 4.426231 0.313055 2.029984 -5.807158 0.135285 -0.403687 2.376964 0.000000 0.000000 0.000000 -3.199950 2.194485 -3.407706 0.444936 3.143968 1.804559 0.026822 -0.965370 -0.097383 0.000000 0.000000 0.000000 0.534669 -3.013834 -1.290097 0.344221 0.676750 0.209821 0.419717 -2.010429 -0.093581 0.000000 0.000000 0.000000 0.016335 -4.146765 -1.252723 -0.141143 0.196211 -0.696167 -0.168376 1.219314 -0.476707 0.000000 0.000000 0.000000 
-179.936691 -79.801575 1063.465942 -3.358036 1.983933 2.736325 -0.816997 -8.381897 0.289395 -1.381934 1.355756 -0.182900 -1.200812 -1.805037 0.133905 -2.585087 7.827701 5.814843 0.000000 0.000000 0.000000 1.431787 2.220489 4.404794 0.314489 2.014970 -5.803781 0.136235 -0.417884 2.388349 0.000000 0.000000 0.000000 -3.161425 2.173194 -3.354477 0.447720 3.113775 1.821628 0.027668 -1.002516 -0.105375 0.000000 0.000000 0.000000 0.526479 -3.022035 -1.284010 0.336811 0.691689 0.203493 0.413033 -2.025992 -0.098994 0.000000 0.000000 0.000000 0.019463 -4.156351 -1.247910 -0.137912 0.205239 -0.695364 -0.165116 1.212366 -0.472886 0.000000 0.000000 0.000000 
-179.918716 -79.683220 1063.453979 -3.348706 1.996410 2.730725 -0.813990 -8.402574 0.291864 -1.379231 1.338279 -0.180270 -1.199940 -1.791876 0.131089 -2.586319 7.853224 5.802514 0.000000 0.000000 0.000000 1.545595 2.214884 4.407810 0.310344 2.019182 -5.815228 0.136448 -0.448079 2.383526 0.000000 0.000000 0.000000 -3.127563 2.164864 -3.300362 0.455737 3.099195 1.854287 0.024780 -1.078854 -0.169999 0.000000 0.000000 0.000000 0.520806 -3.041212 -1.282413 0.331094 0.708638 0.199645 0.408206 -2.043966 -0.103883 0.000000 0.000000 0.000000 0.027139 -4.178382 -1.249880 -0.132023 0.221690 -0.687992 -0.158813 1.203268 -0.466905 0.000000 0.000000 0.000000 
-179.972427 -79.555855 1063.437988 -3.344100 2.011211 2.726515 -0.807972 -8.431306 0.293152 -1.373277 1.305971 -0.173241 -1.197504 -1.767049 0.126086 -2.587832 7.897375 5.778166 0.000000 0.000000 0.000000 1.775315 2.219984 4.436115 0.300991 2.043093 -5.844806 0.136073 -0.494820 2.365249 0.000000 0.000000 0.000000 -3.102701 2.164327 -3.241455 0.468181 3.095453 1.899183 0.018874 -1.190065 -0.283036 0.000000 0.000000 0.000000 0.516064 -3.068005 -1.282487 0.326017 0.726613 0.195890 0.404095 -2.063910 -0.108721 0.000000 0.000000 0.000000 0.038075 -4.209698 -1.256872 -0.124371 0.243603 -0.674853 -0.150396 1.194030 -0.459863 0.000000 0.000000 0.000000 
-179.728607 -79.445992 1063.422974 -3.349278 2.057242 2.723129 -0.810659 -8.455636 0.308119 -1.376594 1.284426 -0.178435 -1.202067 -1.755123 0.128757 -2.584399 7.903552 5.765607 0.000000 0.000000 0.000000 1.577620 2.185864 4.336536 0.308685 1.996442 -5.791779 0.137349 -0.479305 2.387547 0.000000 0.000000 0.000000 -3.001888 2.185043 -3.189631 0.483855 3.098760 1.946696 0.012210 -1.320483 -0.414965 0.000000 0.000000 0.000000 0.516012 -3.105764 -1.289058 0.324332 0.734179 0.200354 0.403506 -2.090966 -0.112928 0.000000 0.000000 0.000000 0.053173 -4.248825 -1.263194 -0.112017 0.253435 -0.664862 -0.137772 1.176590 -0.448138 0.000000 0.000000 0.000000 
-178.938293 -79.360054 1063.416992 -3.362335 2.139387 2.718645 -0.830552 -8.467281 0.347589 -1.398754 1.300842 -0.203416 -1.219580 -1.781170 0.144624 -2.571658 7.836175 5.781288 0.000000 0.000000 0.000000 0.356483 2.044466 3.973483 0.366215 1.763274 -5.582571 0.141450 -0.273440 2.503275 0.000000 0.000000 0.000000 -2.730162 2.224182 -3.188322 0.498591 3.088693 2.014495 0.006641 -1.431607 -0.528405 0.000000 0.000000 0.000000 0.520456 -3.144705 -1.305538 0.324867 0.734150 0.222406 0.406176 -2.145641 -0.119605 0.000000 0.000000 0.000000 0.071787 -4.278109 -1.263045 -0.093370 0.239097 -0.665530 -0.120053 1.136862 -0.426733 0.000000 0.000000 0.000000 
-177.742111 -79.285149 1063.416016 -3.382072 2.245826 2.713427 -0.861547 -8.469117 0.407222 -1.432959 1.343214 -0.233139 -1.245089 -1.834066 0.167474 -2.543914 7.713399 5.794429 0.000000 0.000000 0.000000 -1.689508 1.809498 3.403295 0.469949 1.371336 -5.265993 0.148139 0.100779 2.708034 0.000000 0.000000 0.000000 -2.323808 2.274241 -3.242550 0.512094 3.066079 2.114252 0.000455 -1.527044 -0.640619 0.000000 0.000000 0.000000 0.527997 -3.182862 -1.330744 0.326496 0.731357 0.259335 0.410992 -2.226439 -0.129063 0.000000 0.000000 0.000000 0.094020 -4.296978 -1.259381 -0.069205 0.206919 -0.673153 -0.097692 1.077380 -0.396685 0.000000 0.000000 0.000000 
-176.158981 -79.291550 1063.404053 -3.429238 2.450039 2.714435 -0.893297 -8.479004 0.470506 -1.467415 1.380719 -0.251880 -1.272213 -1.874548 0.183149 -2.496094 7.516355 5.778996 0.000000 0.000000 0.000000 -3.507245 1.635292 2.795119 0.548745 1.067431 -4.907287 0.162032 0.307990 2.968694 0.000000 0.000000 0.000000 -1.977458 2.385911 -3.198175 0.540556 3.114718 2.154350 -0.009170 -1.741972 -0.846203 0.000000 0.000000 0.000000 0.551000 -3.284378 -1.362028 0.343036 0.678588 0.292627 0.427730 -2.254311 -0.125205 0.000000 0.000000 0.000000 0.123392 -4.392977 -1.259152 -0.040163 0.162404 -0.680217 -0.070533 1.041814 -0.372099 0.000000 0.000000 0.000000 
-174.243469 -79.414986 1063.324951 -3.514550 2.809845 2.725358 -0.923518 -8.495697 0.529877 -1.497533 1.380023 -0.273396 -1.299828 -1.873089 0.197865 -2.437301 7.224969 5.755252 0.000000 0.000000 0.000000 -4.376407 1.637128 2.237905 0.548616 1.029175 -4.517082 0.188933 0.085615 3.254966 0.000000 0.000000 0.000000 -1.798838 2.602890 -2.913760 0.597469 3.293544 2.038155 -0.022538 -2.185365 -1.215232 0.000000 0.000000 0.000000 0.603006 -3.479525 -1.396998 0.390839 0.498122 0.302427 0.467789 -2.148289 -0.090892 0.000000 0.000000 0.000000 0.157755 -4.614469 -1.268519 -0.010898 0.066831 -0.674147 -0.042539 1.078908 -0.370705 0.000000 0.000000 0.000000 
-171.993362 -79.626534 1063.182983 -3.629414 3.294318 2.743326 -0.955230 -8.506513 0.588624 -1.526005 1.351280 -0.302328 -1.328710 -1.846113 0.216964 -2.371303 6.842917 5.739207 0.000000 0.000000 0.000000 -4.707118 1.758878 1.674207 0.500938 1.161675 -4.079572 0.229384 -0.437622 3.579182 0.000000 0.000000 0.000000 -1.709903 2.906363 -2.456974 0.679275 3.570868 1.809851 -0.036567 -2.805382 -1.711049 0.000000 0.000000 0.000000 0.678980 -3.740054 -1.437734 0.464510 0.206394 0.295948 0.527065 -1.935864 -0.032070 0.000000 0.000000 0.000000 0.195182 -4.924497 -1.285625 0.018297 -0.083249 -0.656778 -0.014294 1.174430 -0.388164 0.000000 0.000000 0.000000 
-169.185791 -79.981583 1063.188965 -3.792948 3.847001 2.771319 -0.965161 -8.522691 0.620756 -1.531310 1.337794 -0.314897 -1.334727 -1.824448 0.224569 -2.301862 6.396506 5.732078 0.000000 0.000000 0.000000 -4.740924 1.975692 1.220588 0.439567 1.407450 -3.733965 0.278165 -1.088510 3.917300 0.000000 0.000000 0.000000 -1.794207 3.254093 -1.993136 0.783718 3.932743 1.607635 -0.046699 -3.504969 -2.248917 0.000000 0.000000 0.000000 0.756667 -4.100235 -1.489633 0.534345 0.009282 0.307655 0.585735 -1.739996 0.024028 0.000000 0.000000 0.000000 0.258650 -5.343479 -1.306059 0.070042 -0.102734 -0.660857 0.036036 1.240452 -0.385440 0.000000 0.000000 0.000000 
-165.544220 -80.616852 1063.469971 -4.016031 4.438499 2.822133 -0.927736 -8.603084 0.557216 -1.491543 1.385580 -0.271158 -1.294014 -1.847042 0.194910 -2.227911 5.895429 5.720113 0.000000 0.000000 0.000000 -4.500370 2.341184 1.001389 0.373546 1.810514 -3.596432 0.332165 -1.804488 4.269454 0.000000 0.000000 0.000000 -2.181215 3.658435 -1.619667 0.920720 4.429715 1.560056 -0.052067 -4.248504 -2.820094 0.000000 0.000000 0.000000 0.816248 -4.571133 -1.560699 0.575487 0.022188 0.362152 0.625700 -1.655683 0.055070 0.000000 0.000000 0.000000 0.363421 -5.887421 -1.325396 0.161207 0.134481 -0.725628 0.123766 1.213078 -0.334423 0.000000 0.000000 0.000000 
-161.150024 -81.514915 1063.946045 -4.289325 5.087566 2.893214 -0.852216 -8.739265 0.404650 -1.414619 1.476454 -0.180511 -1.215613 -1.903199 0.134413 -2.147112 5.325007 5.707379 0.000000 0.000000 0.000000 -3.904894 2.865781 0.985500 0.289341 2.392227 -3.605308 0.390839 -2.655983 4.620684 0.000000 0.000000 0.000000 -2.834781 4.137159 -1.290032 1.097763 5.070334 1.619413 -0.049391 -5.075109 -3.447085 0.000000 0.000000 0.000000 0.865392 -5.135454 -1.647688 0.598669 0.165154 0.445675 0.653782 -1.631642 0.071720 0.000000 0.000000 0.000000 0.500528 -6.544602 -1.344266 0.283197 0.556742 -0.840012 0.240286 1.131354 -0.251935 0.000000 0.000000 0.000000 
